<svg width="64" height="64" viewBox="0 0 64 64" fill="none" xmlns="http://www.w3.org/2000/svg">
  <rect width="64" height="64" rx="8" fill="#171817"/>
  <path d="M18 21H38.5C44 21 47.5 24.2 47.5 29C47.5 33 44.8 35.6 41 36.3C45.1 37 49 39.8 49 44.6C49 49.6 45.1 52.5 39 52.5H18V45.5H38.4C40.7 45.5 42 44.5 42 42.8C42 41.1 40.7 40.1 38.4 40.1H27.8C21.8 40.1 18.2 36.6 18.2 31.1C18.2 25.5 22.1 21 28.2 21H47.5V28H29C26.7 28 25.4 29.2 25.4 31.1C25.4 33 26.7 34.2 29 34.2H40.2" stroke="#F4F2EC" stroke-width="3.8" stroke-linecap="square"/>
</svg>
